<svg width="254" height="60" viewBox="0 0 254 60" fill="none" xmlns="http://www.w3.org/2000/svg">
<g clip-path="url(#clip0_1348_10665)">
<path d="M69.2727 14.5176H77.5277L83.439 35.9864H83.5948L89.4253 14.5176H97.4667L87.7627 42.8039H79.0402L69.2727 14.5176Z" fill="#0560FB"/>
<path d="M104.596 41.5916C102.529 40.4139 100.861 38.6475 99.7987 36.5173C98.6326 34.0813 98.0611 31.4085 98.1362 28.7068C98.0669 25.9994 98.65 23.3209 99.8276 20.8848C100.878 18.7604 102.523 16.9824 104.561 15.7702C106.749 14.5233 109.231 13.8998 111.748 13.9633C114.248 13.8883 116.719 14.4886 118.906 15.6951C120.91 16.8554 122.532 18.5699 123.577 20.6366C124.714 22.9572 125.28 25.5145 125.222 28.1007V30.5022H101.906V25.6242H121.533L117.867 30.1847V27.2059C117.908 25.7801 117.648 24.3657 117.1 23.0496C116.661 22.0162 115.922 21.1446 114.981 20.5327C114.028 19.9612 112.932 19.6667 111.823 19.6898C109.508 19.6206 107.39 20.9772 106.484 23.1073C105.929 24.4004 105.664 25.7974 105.71 27.2059V30.2135C105.67 31.5817 105.935 32.944 106.484 34.1967C106.957 35.2473 107.73 36.1306 108.712 36.7367C109.762 37.3486 110.963 37.6546 112.175 37.6199C113.116 37.643 114.046 37.4756 114.918 37.1235C115.628 36.8291 116.274 36.4019 116.817 35.8535C117.261 35.4147 117.608 34.8837 117.821 34.3006L117.873 34.139H124.939L124.858 34.4334C124.621 35.5417 124.206 36.5982 123.623 37.568C122.965 38.6648 122.122 39.6404 121.129 40.4543C119.992 41.3837 118.699 42.0996 117.307 42.5614C115.604 43.1213 113.815 43.3926 112.02 43.358C109.433 43.4331 106.87 42.8212 104.596 41.5916Z" fill="#0560FB"/>
<path d="M129.154 14.5167H136.854V19.4524H137.01C137.339 17.8995 138.147 16.4852 139.319 15.4115C140.474 14.4301 141.952 13.9106 143.464 13.9625C143.868 13.9625 144.272 13.9856 144.676 14.0433C145.017 14.0838 145.346 14.153 145.675 14.2512V21.0572C145.288 20.8956 144.878 20.7859 144.463 20.7282C143.938 20.6474 143.412 20.607 142.881 20.607C141.755 20.5781 140.641 20.8321 139.637 21.3459C138.742 21.8365 138.026 22.5928 137.582 23.5106C137.08 24.5959 136.837 25.7793 136.872 26.9743V42.7973H129.154V14.5167Z" fill="#0560FB"/>
<path d="M148.798 14.5161H156.498V19.1342H156.654C157.353 17.5698 158.49 16.2421 159.927 15.3127C161.538 14.3371 163.397 13.8522 165.279 13.9157C168.396 13.9157 170.803 14.8509 172.495 16.727C174.186 18.6032 175.035 21.2009 175.04 24.5202V42.7678H167.34V26.1481C167.34 24.3008 166.901 22.8692 166.035 21.8474C165.169 20.8256 163.864 20.3177 162.144 20.3177C161.094 20.2946 160.06 20.5716 159.16 21.1143C158.311 21.6454 157.63 22.4016 157.197 23.3021C156.712 24.3124 156.475 25.4265 156.498 26.5464V42.7909H148.798V14.5161Z" fill="#0560FB"/>
<path d="M185.454 41.6193C183.365 40.4532 181.673 38.6867 180.594 36.5566C179.382 34.1032 178.787 31.39 178.862 28.6537V28.6017C178.781 25.8828 179.376 23.1869 180.594 20.7566C181.702 18.6322 183.399 16.8773 185.489 15.7055C187.746 14.4874 190.28 13.8755 192.844 13.939C195.418 13.8697 197.97 14.4643 200.244 15.6708C202.334 16.8312 204.037 18.5803 205.134 20.7047C206.352 23.1465 206.946 25.8539 206.865 28.5787V28.6306C206.941 31.3727 206.346 34.0858 205.134 36.545C204.066 38.6752 202.386 40.4416 200.313 41.6193C195.643 43.9572 190.136 43.9572 185.466 41.6193H185.454ZM196.163 36.3141C197.138 35.5579 197.877 34.5303 198.287 33.3642C198.824 31.8518 199.078 30.2585 199.038 28.6537V28.6017C199.078 27.0142 198.818 25.4383 198.276 23.9489C197.854 22.7771 197.11 21.7553 196.122 20.9933C195.176 20.3121 194.033 19.9542 192.867 19.9773C191.706 19.9542 190.575 20.3121 189.64 21.0049C188.658 21.7669 187.914 22.7944 187.486 23.9605C186.944 25.4383 186.69 27.0027 186.724 28.5787V28.6306C186.684 30.2354 186.938 31.8287 187.475 33.3412C187.885 34.513 188.635 35.5406 189.622 36.291C190.581 36.978 191.741 37.3359 192.919 37.307C194.079 37.3417 195.222 36.9953 196.163 36.3141Z" fill="#0560FB"/>
<path d="M215.825 42.2369C214.139 41.5903 212.656 40.505 211.542 39.0849C210.508 37.7226 209.873 36.1005 209.694 34.4033V34.1666H217.199L217.251 34.4033C217.459 35.4424 218.053 36.3718 218.913 36.9894C219.987 37.6591 221.24 37.9824 222.504 37.9131C223.353 37.9304 224.201 37.8092 225.009 37.5552C225.621 37.3647 226.17 37.0125 226.603 36.5392C226.989 36.1062 227.191 35.5405 227.18 34.9574V34.9228C227.203 34.2243 226.903 33.5547 226.366 33.1044C225.5 32.5098 224.513 32.1173 223.48 31.9499L218.682 30.9223C215.94 30.3566 213.874 29.3925 212.483 28.036C211.097 26.6678 210.341 24.7859 210.399 22.8405V22.8001C210.358 21.1144 210.872 19.4692 211.865 18.1069C212.933 16.7156 214.364 15.6535 216.004 15.03C217.996 14.268 220.12 13.8985 222.25 13.9389C224.426 13.8812 226.591 14.2911 228.6 15.1397C230.216 15.8266 231.613 16.9408 232.641 18.3666C233.57 19.6886 234.09 21.2645 234.13 22.8809V23.1407H227.018V22.9329C226.897 21.94 226.389 21.0336 225.604 20.4159C224.64 19.6886 223.451 19.3307 222.244 19.3999C221.459 19.3826 220.674 19.5096 219.935 19.7694C219.352 19.9714 218.833 20.3236 218.434 20.7969C218.076 21.2472 217.892 21.8072 217.909 22.3787C217.897 23.0829 218.209 23.7526 218.752 24.2029C219.635 24.8205 220.657 25.2189 221.73 25.3574L226.533 26.3849C229.501 27.0026 231.631 27.9263 232.93 29.1559C234.246 30.4605 234.95 32.2616 234.863 34.1146V34.1435C234.898 35.8869 234.338 37.584 233.282 38.9695C232.133 40.4069 230.632 41.5095 228.918 42.1734C226.874 42.9758 224.692 43.3683 222.498 43.3279C220.224 43.4029 217.955 43.0335 215.825 42.2369Z" fill="#0560FB"/>
<path d="M242.922 41.3949C241.41 40.073 240.653 37.9024 240.653 34.8775V20.3187H236.728V14.5171H240.653V7.58984H248.435V14.5171H253.631V20.3187H248.435V34.0347C248.435 35.3567 248.73 36.2803 249.318 36.7941C250.069 37.3598 251.004 37.6369 251.945 37.5676C252.251 37.5676 252.563 37.5561 252.869 37.5272C253.128 37.5272 253.377 37.4752 253.607 37.4406V43.0806C253.18 43.1498 252.661 43.2191 252.037 43.2768C251.321 43.3461 250.606 43.3808 249.884 43.375C246.755 43.375 244.435 42.7169 242.922 41.3949Z" fill="#0560FB"/>
<path d="M117.66 53.6733H113.359C113.359 54.1409 113.538 54.5969 113.855 54.9433C114.173 55.2204 114.589 55.3647 115.01 55.3416C115.333 55.3531 115.656 55.2781 115.945 55.128C116.193 54.9721 116.395 54.7412 116.522 54.4757H116.649L117.764 55.1915C117.556 55.6649 117.209 56.0632 116.776 56.346C116.245 56.6635 115.633 56.8136 115.016 56.7848C114.398 56.8021 113.78 56.6636 113.226 56.3865C112.73 56.1325 112.326 55.7284 112.072 55.2319C111.783 54.6431 111.644 53.9908 111.662 53.3327C111.639 52.6631 111.789 52.005 112.095 51.4104C112.36 50.9197 112.759 50.5214 113.249 50.2558C113.763 49.9961 114.329 49.8633 114.9 49.8748C115.697 49.8171 116.482 50.0884 117.071 50.6253C117.613 51.2257 117.885 52.0223 117.827 52.8305C117.827 53.1018 117.821 53.3789 117.792 53.6502L117.66 53.6733ZM116.216 52.588C116.234 52.1897 116.107 51.7914 115.859 51.4796C115.605 51.2314 115.252 51.1044 114.894 51.1275C114.046 51.1275 113.544 51.6182 113.399 52.588H116.216Z" fill="#0560FB"/>
<path d="M119.282 56.6412V49.9333H120.892V50.8281H121.019C121.701 49.8063 123.057 49.483 124.131 50.0834C124.443 50.2912 124.679 50.5972 124.8 50.9551H124.927C125.106 50.5914 125.384 50.2854 125.724 50.0661C126.099 49.864 126.521 49.7659 126.942 49.7832C128.328 49.7832 129.02 50.551 129.02 52.0923V56.5893H127.34V52.3001C127.369 51.9999 127.289 51.6998 127.11 51.4515C126.913 51.261 126.642 51.1687 126.371 51.1917C125.453 51.1917 124.991 51.8094 124.991 53.039V56.5893H123.311V52.3001C123.334 51.9999 123.253 51.6998 123.08 51.4515C122.878 51.261 122.607 51.1687 122.336 51.1917C121.949 51.1744 121.579 51.3303 121.325 51.6247C121.048 52.0288 120.921 52.5137 120.962 53.0044V56.5893L119.282 56.6412Z" fill="#0560FB"/>
<path d="M130.845 59.3476V49.9323H132.525V50.804H132.652C132.836 50.475 133.108 50.2094 133.442 50.0362C133.8 49.863 134.199 49.7707 134.597 49.7822C135.093 49.7707 135.584 49.9034 136.006 50.1632C136.427 50.4461 136.756 50.8444 136.947 51.3178C137.183 51.9297 137.299 52.5878 137.281 53.2459C137.299 53.9039 137.177 54.562 136.923 55.1682C136.721 55.6415 136.375 56.0456 135.942 56.3227C135.503 56.5825 135.001 56.7153 134.487 56.7095C134.118 56.7153 133.748 56.646 133.408 56.4959C133.096 56.3516 132.831 56.1264 132.64 55.8436L132.513 55.8725V59.2899L130.845 59.3476ZM135.168 54.8507C135.694 53.8809 135.694 52.7148 135.168 51.745C134.891 51.3986 134.458 51.2139 134.014 51.2485C133.581 51.2312 133.171 51.4217 132.9 51.7565C132.351 52.709 132.351 53.8809 132.9 54.8334C133.171 55.1682 133.581 55.3587 134.014 55.3414C134.458 55.376 134.886 55.1913 135.168 54.8507Z" fill="#0560FB"/>
<path d="M140.047 56.3633C139.55 56.092 139.152 55.6821 138.892 55.1799C138.344 53.9849 138.344 52.611 138.892 51.416C139.146 50.9138 139.55 50.4982 140.047 50.2269C141.138 49.69 142.419 49.69 143.51 50.2269C144.007 50.4982 144.411 50.9138 144.665 51.416C145.219 52.611 145.219 53.9849 144.665 55.1799C144.405 55.6821 144.007 56.092 143.51 56.3633C142.419 56.9059 141.138 56.9059 140.047 56.3633ZM143.325 53.2979C143.372 52.7495 143.227 52.2011 142.927 51.7451C142.644 51.4045 142.211 51.2255 141.773 51.2486C140.734 51.2486 140.214 51.9356 140.214 53.2979C140.214 54.6603 140.734 55.3415 141.773 55.3415C142.812 55.3415 143.325 54.6603 143.325 53.2979Z" fill="#0560FB"/>
<path d="M149.191 56.6395H147.459L145.848 49.9316H147.407L148.388 54.4517H148.515L149.785 49.9316H151.246L152.562 54.4517H152.689L153.636 49.9316H155.148L153.555 56.6395H151.823L150.559 52.0849H150.432L149.191 56.6395Z" fill="#0560FB"/>
<path d="M161.936 53.6733H157.642C157.642 54.1467 157.82 54.5969 158.138 54.9433C158.455 55.2204 158.871 55.3647 159.293 55.3416C159.616 55.3531 159.939 55.2781 160.228 55.128C160.476 54.9721 160.678 54.7412 160.805 54.4757H160.932L162.046 55.1915C161.833 55.6649 161.492 56.0632 161.059 56.346C160.528 56.6635 159.91 56.8136 159.293 56.7848C158.675 56.8021 158.057 56.6636 157.503 56.3865C157.007 56.1325 156.602 55.7284 156.348 55.2319C155.788 54.0196 155.788 52.6226 156.348 51.4104C156.614 50.9197 157.012 50.5214 157.503 50.2558C158.011 49.9961 158.577 49.8691 159.148 49.8748C159.945 49.8171 160.73 50.0884 161.325 50.6253C161.861 51.2257 162.133 52.0223 162.075 52.8305C162.075 53.1018 162.069 53.3789 162.04 53.6502L161.936 53.6733ZM160.482 52.588C160.505 52.1897 160.378 51.7971 160.13 51.4796C159.87 51.2314 159.518 51.0987 159.16 51.1275C158.311 51.1275 157.815 51.6182 157.665 52.588H160.482Z" fill="#0560FB"/>
<path d="M163.559 56.6406V49.9327H165.192V50.9256H165.319C165.446 50.5966 165.666 50.3137 165.954 50.1059C166.243 49.927 166.572 49.8346 166.913 49.8461C167.213 49.8231 167.513 49.8923 167.778 50.0424L167.496 51.4914H167.369C167.265 51.451 167.161 51.4163 167.051 51.3932C166.93 51.3817 166.803 51.3817 166.682 51.3932C166.266 51.3701 165.862 51.5549 165.608 51.8839C165.325 52.3631 165.198 52.9172 165.238 53.4714V56.6002L163.559 56.6406Z" fill="#0560FB"/>
<path d="M168.899 48.8759C168.523 48.4776 168.523 47.8599 168.899 47.4616C169.101 47.2768 169.366 47.1729 169.638 47.1845C169.828 47.1845 170.013 47.2249 170.18 47.3115C170.33 47.3923 170.457 47.5135 170.544 47.6578C170.723 47.9753 170.723 48.3563 170.544 48.6738C170.457 48.8239 170.33 48.9451 170.18 49.026C170.013 49.1126 169.828 49.153 169.638 49.153C169.366 49.1645 169.101 49.0606 168.899 48.8759ZM168.8 56.6402V49.9323H170.48V56.6171L168.8 56.6402Z" fill="#0560FB"/>
<path d="M172.403 56.6412V49.9333H174.013V50.9147L174.14 50.9436C174.874 49.7948 176.398 49.46 177.546 50.1931C177.662 50.2624 177.766 50.349 177.864 50.4356C178.262 50.9609 178.453 51.6132 178.406 52.2713V56.6181H176.727V52.4791C176.761 52.1385 176.663 51.7921 176.461 51.5151C176.23 51.3015 175.918 51.1918 175.607 51.2207C175.18 51.1976 174.77 51.3707 174.487 51.6882C174.181 52.1154 174.037 52.635 174.083 53.1545V56.6181L172.403 56.6412Z" fill="#0560FB"/>
<path d="M180.294 58.9892C179.797 58.7237 179.497 58.1983 179.503 57.6384C179.491 57.3151 179.612 57.0034 179.838 56.7725C180.109 56.5243 180.444 56.3684 180.807 56.3222V56.1952C180.611 56.0855 180.444 55.9297 180.317 55.7392C180.219 55.5602 180.167 55.3639 180.172 55.1619C180.172 54.625 180.519 54.2671 181.217 54.0766V53.9496C180.888 53.7707 180.605 53.5051 180.409 53.1876C180.219 52.8528 180.12 52.466 180.132 52.0792C180.132 51.6752 180.23 51.2768 180.438 50.9247C180.651 50.5783 180.969 50.3013 181.338 50.1338C181.783 49.9376 182.268 49.8452 182.753 49.8567C183.215 49.8337 183.676 49.9318 184.086 50.1454C184.294 49.8394 184.421 49.4758 184.444 49.1063L184.571 49.0312L185.778 49.3257C185.749 49.6143 185.656 49.8856 185.495 50.1281C185.31 50.3705 185.073 50.5726 184.802 50.7053V50.8381C185.195 51.1903 185.408 51.6982 185.379 52.2236C185.385 52.6161 185.281 52.9971 185.073 53.3319C184.842 53.6668 184.525 53.9265 184.15 54.0882C183.711 54.2844 183.232 54.3826 182.747 54.371H182.152C182.02 54.3652 181.893 54.4057 181.794 54.4922C181.708 54.5731 181.662 54.6885 181.662 54.8098C181.662 54.9425 181.719 55.0695 181.829 55.1446C181.979 55.2312 182.152 55.2773 182.326 55.2716L183.826 55.3293C185.304 55.3697 186.043 56.0105 186.043 57.2343C186.049 57.6442 185.934 58.0425 185.714 58.3888C185.449 58.7641 185.079 59.0412 184.646 59.1913C184.034 59.4106 183.382 59.5145 182.73 59.4914C181.887 59.5434 181.05 59.3702 180.294 58.9892ZM183.988 58.0136C184.225 57.8924 184.369 57.6499 184.375 57.3844C184.392 57.2054 184.317 57.0323 184.179 56.9168C183.982 56.8013 183.763 56.7494 183.538 56.7609L182.222 56.6974H181.985C181.754 56.6801 181.529 56.7436 181.338 56.8764C181.188 56.9976 181.102 57.1881 181.113 57.3844C181.113 57.6615 181.275 57.9155 181.523 58.0367C181.904 58.2099 182.32 58.2907 182.735 58.2676C183.168 58.2965 183.601 58.2041 183.988 58.0136ZM183.509 52.9105C183.705 52.6854 183.803 52.391 183.78 52.0966C183.803 51.8022 183.705 51.5078 183.509 51.2884C183.076 50.9132 182.429 50.9132 181.997 51.2884C181.644 51.7733 181.644 52.4256 181.997 52.9105C182.429 53.2858 183.076 53.2858 183.509 52.9105Z" fill="#0560FB"/>
<path d="M190.206 48.8759C189.831 48.4776 189.831 47.8599 190.206 47.4616C190.408 47.2768 190.673 47.1729 190.945 47.1845C191.135 47.1845 191.32 47.2249 191.487 47.3115C191.637 47.3923 191.764 47.5135 191.851 47.6578C192.03 47.9753 192.03 48.3563 191.851 48.6738C191.764 48.8239 191.637 48.9451 191.487 49.026C191.32 49.1126 191.135 49.153 190.945 49.153C190.673 49.1645 190.408 49.0606 190.206 48.8759ZM190.108 56.6402V49.9323H191.787V56.6171L190.108 56.6402Z" fill="#0560FB"/>
<path d="M193.709 56.6412V49.9333H195.32V50.9147L195.447 50.9436C196.18 49.7948 197.704 49.46 198.853 50.1931C198.968 50.2624 199.072 50.349 199.17 50.4356C199.569 50.9609 199.759 51.6132 199.713 52.2713V56.6181H198.033V52.4791C198.068 52.1385 197.97 51.7921 197.768 51.5151C197.537 51.3015 197.225 51.1918 196.913 51.2207C196.486 51.1976 196.076 51.3707 195.793 51.6882C195.487 52.1154 195.343 52.635 195.389 53.1545V56.6181L193.709 56.6412Z" fill="#0560FB"/>
<path d="M201.538 56.6402V49.9323H203.148V50.9137L203.275 50.9426C203.662 50.1921 204.459 49.7361 205.301 49.788C205.931 49.7303 206.554 49.9612 206.999 50.4172C207.397 50.9426 207.587 51.5949 207.541 52.253V56.5998H205.867V52.4608C205.896 52.1144 205.804 51.7738 205.596 51.4967C205.365 51.2774 205.053 51.1735 204.741 51.2023C204.314 51.1793 203.904 51.3524 203.622 51.6699C203.316 52.0971 203.171 52.6166 203.217 53.1362V56.5998L201.538 56.6402Z" fill="#0560FB"/>
<path d="M210.566 56.3633C210.07 56.092 209.671 55.6821 209.412 55.1799C208.863 53.9849 208.863 52.611 209.412 51.416C209.666 50.9138 210.07 50.4982 210.566 50.2269C211.657 49.69 212.939 49.69 214.03 50.2269C214.526 50.4982 214.93 50.9138 215.184 51.416C215.733 52.611 215.733 53.9849 215.184 55.1799C214.925 55.6821 214.526 56.092 214.03 56.3633C212.939 56.9059 211.657 56.9059 210.566 56.3633ZM213.845 53.2979C213.891 52.7495 213.747 52.2011 213.447 51.7451C213.164 51.4045 212.731 51.2255 212.292 51.2486C211.259 51.2486 210.739 51.9356 210.739 53.2979C210.739 54.6603 211.259 55.3415 212.292 55.3415C213.325 55.3415 213.845 54.6603 213.845 53.2979Z" fill="#0560FB"/>
<path d="M220.645 56.6395H218.642L216.171 49.9316H217.903L219.56 54.6941H219.698L221.367 49.9316H223.098L220.645 56.6395Z" fill="#0560FB"/>
<path d="M224.594 56.53C224.288 56.3741 224.034 56.1316 223.866 55.8315C223.687 55.4909 223.601 55.1156 223.612 54.7346C223.601 54.3825 223.687 54.0361 223.866 53.736C224.063 53.4473 224.34 53.2222 224.657 53.0779C225.102 52.8816 225.569 52.7431 226.048 52.6796C226.36 52.6392 226.666 52.5699 226.961 52.466C227.122 52.4198 227.267 52.3332 227.382 52.2062C227.567 51.9291 227.515 51.5654 227.266 51.3461C227.041 51.2133 226.782 51.1556 226.522 51.1786C226.152 51.1786 225.794 51.2595 225.465 51.4269C225.131 51.5827 224.836 51.8079 224.588 52.0792H224.467L223.768 51.017C224.115 50.636 224.536 50.3358 225.009 50.1395C225.517 49.926 226.06 49.8221 226.608 49.8278C227.301 49.7701 227.988 49.9779 228.531 50.4051C228.941 50.8323 229.148 51.4153 229.108 52.0041V54.8905C229.108 55.1907 229.235 55.3408 229.501 55.3408C229.599 55.3408 229.703 55.3235 229.795 55.283L229.882 55.3119L230.003 56.4665C229.882 56.5357 229.755 56.5877 229.616 56.6165C229.437 56.657 229.252 56.6743 229.068 56.6743C228.739 56.6916 228.415 56.6108 228.132 56.4434C227.89 56.2702 227.723 56.0104 227.653 55.7218H227.526C227.191 56.4203 226.464 56.8359 225.696 56.7666C225.315 56.7724 224.94 56.6916 224.594 56.53ZM227.174 55.1214C227.422 54.8155 227.544 54.4229 227.52 54.0304V53.355L227.405 53.3261C227.29 53.4185 227.157 53.4877 227.012 53.5339C226.782 53.6032 226.545 53.6552 226.302 53.6898C226.02 53.7187 225.748 53.8283 225.517 54.0015C225.356 54.1689 225.269 54.3998 225.281 54.6307C225.263 54.8732 225.356 55.1156 225.535 55.283C225.737 55.4447 225.991 55.5255 226.245 55.5082C226.597 55.5313 226.937 55.387 227.174 55.1272V55.1214Z" fill="#0560FB"/>
<path d="M234.685 55.0403L235.123 56.2872C234.921 56.4488 234.685 56.5643 234.437 56.6393C234.136 56.7259 233.819 56.7663 233.507 56.7663C232.901 56.8125 232.301 56.6047 231.856 56.1891C231.44 55.7099 231.233 55.0865 231.279 54.4572V51.2822H230.274V49.9314H231.29V48.6268L232.97 48.3555V49.9314H234.869V51.2649H232.97V54.3187C232.947 54.5785 233.022 54.8325 233.178 55.0403C233.328 55.1904 233.542 55.277 233.755 55.2654C234.032 55.2712 234.31 55.1846 234.535 55.023L234.685 55.0403Z" fill="#0560FB"/>
<path d="M236.33 48.8759C235.943 48.4834 235.943 47.8542 236.33 47.4616C236.526 47.2711 236.797 47.173 237.069 47.1845C237.253 47.1845 237.438 47.2249 237.606 47.3115C237.756 47.3923 237.883 47.5136 237.975 47.6579C238.142 47.9754 238.142 48.3564 237.975 48.6739C237.888 48.824 237.761 48.9452 237.606 49.026C237.438 49.1126 237.253 49.1588 237.069 49.153C236.797 49.1646 236.526 49.0664 236.33 48.8759ZM236.232 56.6402V49.9323H237.912V56.6171L236.232 56.6402Z" fill="#0560FB"/>
<path d="M241.028 56.3633C240.532 56.092 240.134 55.6821 239.874 55.1799C239.326 53.9849 239.326 52.611 239.874 51.416C240.128 50.9138 240.532 50.4982 241.028 50.2269C242.12 49.69 243.401 49.69 244.492 50.2269C244.989 50.4982 245.393 50.9138 245.647 51.416C246.195 52.611 246.195 53.9849 245.647 55.1799C245.387 55.6821 244.989 56.092 244.492 56.3633C243.401 56.9059 242.12 56.9059 241.028 56.3633ZM244.307 53.2979C244.354 52.7495 244.209 52.2011 243.909 51.7451C243.626 51.4045 243.193 51.2255 242.755 51.2486C241.715 51.2486 241.202 51.9356 241.202 53.2979C241.202 54.6603 241.715 55.3415 242.755 55.3415C243.794 55.3415 244.307 54.6603 244.307 53.2979Z" fill="#0560FB"/>
<path d="M247.598 56.6412V49.9333H249.215V50.9147L249.342 50.9436C250.075 49.7948 251.599 49.46 252.747 50.1931C252.863 50.2624 252.967 50.349 253.065 50.4356C253.457 50.9609 253.654 51.6132 253.608 52.2713V56.6181H251.928V52.4791C251.957 52.1385 251.864 51.7921 251.662 51.5151C251.431 51.3015 251.12 51.1918 250.808 51.2207C250.369 51.186 249.942 51.3592 249.653 51.6882C249.347 52.1154 249.203 52.635 249.249 53.1545V56.6181L247.598 56.6412Z" fill="#0560FB"/>
<path d="M16.3255 17.0276C14.2704 17.0276 12.4405 19.3828 13.8432 21.5361L25.3887 39.1082C26.3239 40.563 27.9402 41.4347 29.672 41.4173C31.1672 41.4347 32.5873 40.7823 33.5455 39.6336L33.7765 39.3565L60.7236 7.63534C61.7684 6.38266 61.601 4.51807 60.3483 3.4732C59.2226 2.53225 57.5832 2.56111 56.4921 3.53092L29.6028 27.8053L18.1843 17.7549C17.6763 17.2931 17.0125 17.0333 16.3255 17.0276Z" fill="#2AA509"/>
<path d="M9.06925 0.720613C4.24325 0.726386 0.335118 4.63453 0.329346 9.46053V50.4469C0.346664 55.2671 4.24903 59.1637 9.06925 59.1695H50.0556C54.8816 59.1695 58.7898 55.2556 58.7955 50.4296V21.1676L53.6867 27.1828V50.4411C53.6867 52.4443 52.0587 54.0722 50.0556 54.0722H9.06925C7.06612 54.0722 5.44398 52.4443 5.4382 50.4411V9.45475C5.4382 7.45162 7.06612 5.82947 9.06925 5.8237H43.5728L49.2301 0.714844H9.06925V0.720613Z" fill="#0560FB"/>
</g>
<defs>
<clipPath id="clip0_1348_10665">
<rect width="254" height="59.4591" fill="white" transform="translate(0 0.287109)"/>
</clipPath>
</defs>
</svg>
