<svg width="24" height="25" viewBox="0 0 24 25" fill="none" xmlns="http://www.w3.org/2000/svg">
<g clip-path="url(#clip0_1653_1159)">
<path fill-rule="evenodd" clip-rule="evenodd" d="M0 3.71598C0 2.12498 1.291 0.833984 2.882 0.833984C4.472 0.833984 5.763 2.12498 5.764 3.71598C5.764 5.30698 4.473 6.62498 2.882 6.62498C1.291 6.62498 0 5.30698 0 3.71598ZM23.994 24.834L24 24.833V16.031C24 11.725 23.073 8.40796 18.039 8.40796C15.619 8.40796 13.995 9.73596 13.332 10.995H13.262V8.80996H8.48902V24.833H13.459V16.899C13.459 14.81 13.855 12.79 16.442 12.79C18.991 12.79 19.029 15.174 19.029 17.033V24.834H23.994ZM0.395996 8.81104H5.372V24.834H0.395996V8.81104Z" fill="#F5F7FA"/>
</g>
<defs>
<clipPath id="clip0_1653_1159">
<rect width="24" height="24" fill="white" transform="translate(0 0.833984)"/>
</clipPath>
</defs>
</svg>
