<svg width="254" height="60" viewBox="0 0 254 60" fill="none" xmlns="http://www.w3.org/2000/svg">
<g clip-path="url(#clip0_1653_1218)">
<path d="M69.2727 14.6289H77.5277L83.439 36.0977H83.5948L89.4253 14.6289H97.4667L87.7627 42.9153H79.0402L69.2727 14.6289Z" fill="#F5F7FA"/>
<path d="M104.596 41.7029C102.529 40.5253 100.861 38.7588 99.7987 36.6287C98.6326 34.1926 98.0611 31.5198 98.1362 28.8182C98.0669 26.1108 98.65 23.4322 99.8276 20.9961C100.878 18.8718 102.523 17.0938 104.561 15.8815C106.749 14.6346 109.231 14.0111 111.748 14.0746C114.248 13.9996 116.719 14.5999 118.906 15.8064C120.91 16.9668 122.532 18.6813 123.577 20.7479C124.714 23.0685 125.28 25.6258 125.222 28.212V30.6135H101.906V25.7355H121.533L117.867 30.296V27.3173C117.908 25.8914 117.648 24.4771 117.1 23.1609C116.661 22.1276 115.922 21.2559 114.981 20.644C114.028 20.0725 112.932 19.7781 111.823 19.8012C109.508 19.7319 107.39 21.0885 106.484 23.2186C105.929 24.5117 105.664 25.9087 105.71 27.3173V30.3248C105.67 31.693 105.935 33.0553 106.484 34.308C106.957 35.3587 107.73 36.2419 108.712 36.848C109.762 37.4599 110.963 37.7659 112.175 37.7313C113.116 37.7544 114.046 37.5869 114.918 37.2348C115.628 36.9404 116.274 36.5132 116.817 35.9648C117.261 35.5261 117.608 34.995 117.821 34.4119L117.873 34.2503H124.939L124.858 34.5447C124.621 35.6531 124.206 36.7095 123.623 37.6793C122.965 38.7761 122.122 39.7517 121.129 40.5657C119.992 41.4951 118.699 42.2109 117.307 42.6727C115.604 43.2327 113.815 43.504 112.02 43.4693C109.433 43.5444 106.87 42.9325 104.596 41.7029Z" fill="#F5F7FA"/>
<path d="M129.154 14.628H136.854V19.5637H137.01C137.339 18.0109 138.147 16.5966 139.319 15.5228C140.474 14.5415 141.952 14.0219 143.464 14.0739C143.868 14.0739 144.272 14.0969 144.676 14.1547C145.017 14.1951 145.346 14.2644 145.675 14.3625V21.1686C145.288 21.0069 144.878 20.8972 144.463 20.8395C143.938 20.7587 143.412 20.7183 142.881 20.7183C141.755 20.6894 140.641 20.9434 139.637 21.4572C138.742 21.9479 138.026 22.7041 137.582 23.622C137.08 24.7072 136.837 25.8906 136.872 27.0856V42.9086H129.154V14.628Z" fill="#F5F7FA"/>
<path d="M148.798 14.6274H156.498V19.2456H156.654C157.353 17.6812 158.49 16.3534 159.927 15.424C161.538 14.4484 163.397 13.9635 165.279 14.027C168.396 14.027 170.803 14.9622 172.495 16.8383C174.186 18.7145 175.035 21.3122 175.04 24.6315V42.8791H167.34V26.2594C167.34 24.4121 166.901 22.9805 166.035 21.9587C165.169 20.937 163.864 20.429 162.144 20.429C161.094 20.4059 160.06 20.683 159.16 21.2256C158.311 21.7567 157.63 22.5129 157.197 23.4135C156.712 24.4237 156.475 25.5378 156.498 26.6577V42.9022H148.798V14.6274Z" fill="#F5F7FA"/>
<path d="M185.454 41.7306C183.365 40.5645 181.673 38.798 180.594 36.6679C179.382 34.2145 178.787 31.5013 178.862 28.765V28.7131C178.781 25.9941 179.376 23.2983 180.594 20.8679C181.702 18.7436 183.399 16.9887 185.489 15.8168C187.746 14.5988 190.28 13.9869 192.844 14.0504C195.418 13.9811 197.97 14.5757 200.244 15.7822C202.334 16.9425 204.037 18.6916 205.134 20.816C206.352 23.2579 206.946 25.9653 206.865 28.69V28.7419C206.941 31.484 206.346 34.1972 205.134 36.6564C204.066 38.7865 202.386 40.5529 200.313 41.7306C195.643 44.0685 190.136 44.0685 185.466 41.7306H185.454ZM196.163 36.4254C197.138 35.6692 197.877 34.6417 198.287 33.4756C198.824 31.9631 199.078 30.3699 199.038 28.765V28.7131C199.078 27.1256 198.818 25.5496 198.276 24.0603C197.854 22.8884 197.11 21.8666 196.122 21.1046C195.176 20.4234 194.033 20.0655 192.867 20.0886C191.706 20.0655 190.575 20.4235 189.64 21.1162C188.658 21.8782 187.914 22.9057 187.486 24.0718C186.944 25.5496 186.69 27.114 186.724 28.69V28.7419C186.684 30.3468 186.938 31.94 187.475 33.4525C187.885 34.6244 188.635 35.6519 189.622 36.4023C190.581 37.0893 191.741 37.4472 192.919 37.4184C194.079 37.453 195.222 37.1066 196.163 36.4254Z" fill="#F5F7FA"/>
<path d="M215.825 42.3482C214.139 41.7016 212.656 40.6164 211.542 39.1963C210.508 37.8339 209.873 36.2118 209.694 34.5146V34.2779H217.199L217.251 34.5146C217.459 35.5537 218.053 36.4831 218.913 37.1008C219.987 37.7704 221.24 38.0937 222.504 38.0244C223.353 38.0417 224.201 37.9205 225.009 37.6665C225.621 37.476 226.17 37.1239 226.603 36.6505C226.989 36.2175 227.191 35.6518 227.18 35.0688V35.0341C227.203 34.3356 226.903 33.666 226.366 33.2157C225.5 32.6211 224.513 32.2286 223.48 32.0612L218.682 31.0336C215.94 30.4679 213.874 29.5039 212.483 28.1473C211.097 26.7791 210.341 24.8972 210.399 22.9518V22.9114C210.358 21.2258 210.872 19.5805 211.865 18.2182C212.933 16.827 214.364 15.7648 216.004 15.1413C217.996 14.3793 220.12 14.0099 222.25 14.0503C224.426 13.9925 226.591 14.4024 228.6 15.251C230.216 15.938 231.613 17.0521 232.641 18.478C233.57 19.7999 234.09 21.3759 234.13 22.9922V23.252H227.018V23.0442C226.897 22.0513 226.389 21.145 225.604 20.5273C224.64 19.7999 223.451 19.442 222.244 19.5113C221.459 19.494 220.674 19.621 219.935 19.8807C219.352 20.0828 218.833 20.4349 218.434 20.9083C218.076 21.3585 217.892 21.9185 217.909 22.49C217.897 23.1943 218.209 23.8639 218.752 24.3142C219.635 24.9319 220.657 25.3302 221.73 25.4687L226.533 26.4963C229.501 27.114 231.631 28.0376 232.93 29.2672C234.246 30.5718 234.95 32.3729 234.863 34.226V34.2548C234.898 35.9982 234.338 37.6954 233.282 39.0808C232.133 40.5182 230.632 41.6208 228.918 42.2847C226.874 43.0871 224.692 43.4796 222.498 43.4392C220.224 43.5143 217.955 43.1448 215.825 42.3482Z" fill="#F5F7FA"/>
<path d="M242.922 41.5063C241.41 40.1843 240.653 38.0138 240.653 34.9889V20.43H236.728V14.6284H240.653V7.70117H248.435V14.6284H253.631V20.43H248.435V34.146C248.435 35.468 248.73 36.3916 249.318 36.9054C250.069 37.4711 251.004 37.7482 251.945 37.6789C252.251 37.6789 252.563 37.6674 252.869 37.6385C253.128 37.6385 253.377 37.5866 253.607 37.5519V43.1919C253.18 43.2612 252.661 43.3304 252.037 43.3882C251.321 43.4574 250.606 43.4921 249.884 43.4863C246.755 43.4863 244.435 42.8282 242.922 41.5063Z" fill="#F5F7FA"/>
<path d="M117.66 53.7846H113.359C113.359 54.2522 113.538 54.7082 113.855 55.0546C114.173 55.3317 114.589 55.476 115.01 55.4529C115.333 55.4645 115.656 55.3894 115.945 55.2393C116.193 55.0835 116.395 54.8526 116.522 54.587H116.649L117.764 55.3028C117.556 55.7762 117.209 56.1745 116.776 56.4574C116.245 56.7749 115.633 56.925 115.016 56.8961C114.398 56.9134 113.78 56.7749 113.226 56.4978C112.73 56.2438 112.326 55.8397 112.072 55.3432C111.783 54.7544 111.644 54.1021 111.662 53.444C111.639 52.7744 111.789 52.1163 112.095 51.5217C112.36 51.031 112.759 50.6327 113.249 50.3672C113.763 50.1074 114.329 49.9746 114.9 49.9862C115.697 49.9284 116.482 50.1998 117.071 50.7366C117.613 51.337 117.885 52.1336 117.827 52.9418C117.827 53.2131 117.821 53.4902 117.792 53.7615L117.66 53.7846ZM116.216 52.6993C116.234 52.301 116.107 51.9027 115.859 51.591C115.605 51.3427 115.252 51.2158 114.894 51.2388C114.046 51.2388 113.544 51.7295 113.399 52.6993H116.216Z" fill="#F5F7FA"/>
<path d="M119.282 56.7525V50.0446H120.892V50.9394H121.019C121.701 49.9176 123.057 49.5944 124.131 50.1947C124.443 50.4025 124.679 50.7085 124.8 51.0664H124.927C125.106 50.7027 125.384 50.3968 125.724 50.1774C126.099 49.9754 126.521 49.8772 126.942 49.8945C128.328 49.8945 129.02 50.6623 129.02 52.2036V56.7006H127.34V52.4114C127.369 52.1113 127.289 51.8111 127.11 51.5629C126.913 51.3724 126.642 51.28 126.371 51.3031C125.453 51.3031 124.991 51.9208 124.991 53.1504V56.7006H123.311V52.4114C123.334 52.1113 123.253 51.8111 123.08 51.5629C122.878 51.3724 122.607 51.28 122.336 51.3031C121.949 51.2858 121.579 51.4416 121.325 51.736C121.048 52.1401 120.921 52.625 120.962 53.1157V56.7006L119.282 56.7525Z" fill="#F5F7FA"/>
<path d="M130.845 59.459V50.0436H132.525V50.9153H132.652C132.836 50.5863 133.108 50.3207 133.442 50.1475C133.8 49.9744 134.199 49.882 134.597 49.8935C135.093 49.882 135.584 50.0148 136.006 50.2745C136.427 50.5574 136.756 50.9557 136.947 51.4291C137.183 52.041 137.299 52.6991 137.281 53.3572C137.299 54.0153 137.177 54.6734 136.923 55.2795C136.721 55.7529 136.375 56.157 135.942 56.4341C135.503 56.6938 135.001 56.8266 134.487 56.8208C134.118 56.8266 133.748 56.7573 133.408 56.6072C133.096 56.4629 132.831 56.2378 132.64 55.9549L132.513 55.9838V59.4012L130.845 59.459ZM135.168 54.962C135.694 53.9922 135.694 52.8261 135.168 51.8563C134.891 51.5099 134.458 51.3252 134.014 51.3598C133.581 51.3425 133.171 51.533 132.9 51.8678C132.351 52.8203 132.351 53.9922 132.9 54.9447C133.171 55.2795 133.581 55.47 134.014 55.4527C134.458 55.4873 134.886 55.3026 135.168 54.962Z" fill="#F5F7FA"/>
<path d="M140.047 56.4746C139.55 56.2033 139.152 55.7934 138.892 55.2912C138.344 54.0962 138.344 52.7223 138.892 51.5274C139.146 51.0251 139.55 50.6095 140.047 50.3382C141.138 49.8013 142.419 49.8013 143.51 50.3382C144.007 50.6095 144.411 51.0251 144.665 51.5274C145.219 52.7223 145.219 54.0962 144.665 55.2912C144.405 55.7934 144.007 56.2033 143.51 56.4746C142.419 57.0172 141.138 57.0172 140.047 56.4746ZM143.325 53.4093C143.372 52.8609 143.227 52.3125 142.927 51.8564C142.644 51.5158 142.211 51.3369 141.773 51.36C140.734 51.36 140.214 52.0469 140.214 53.4093C140.214 54.7716 140.734 55.4528 141.773 55.4528C142.812 55.4528 143.325 54.7716 143.325 53.4093Z" fill="#F5F7FA"/>
<path d="M149.191 56.7509H147.459L145.848 50.043H147.407L148.388 54.563H148.515L149.785 50.043H151.246L152.562 54.563H152.689L153.636 50.043H155.148L153.555 56.7509H151.823L150.559 52.1962H150.432L149.191 56.7509Z" fill="#F5F7FA"/>
<path d="M161.936 53.7846H157.642C157.642 54.258 157.82 54.7082 158.138 55.0546C158.455 55.3317 158.871 55.476 159.293 55.4529C159.616 55.4645 159.939 55.3894 160.228 55.2393C160.476 55.0835 160.678 54.8526 160.805 54.587H160.932L162.046 55.3028C161.833 55.7762 161.492 56.1745 161.059 56.4574C160.528 56.7749 159.91 56.925 159.293 56.8961C158.675 56.9134 158.057 56.7749 157.503 56.4978C157.007 56.2438 156.602 55.8397 156.348 55.3432C155.788 54.131 155.788 52.734 156.348 51.5217C156.614 51.031 157.012 50.6327 157.503 50.3672C158.011 50.1074 158.577 49.9804 159.148 49.9862C159.945 49.9284 160.73 50.1998 161.325 50.7366C161.861 51.337 162.133 52.1336 162.075 52.9418C162.075 53.2131 162.069 53.4902 162.04 53.7615L161.936 53.7846ZM160.482 52.6993C160.505 52.301 160.378 51.9085 160.13 51.591C159.87 51.3427 159.518 51.21 159.16 51.2388C158.311 51.2388 157.815 51.7295 157.665 52.6993H160.482Z" fill="#F5F7FA"/>
<path d="M163.559 56.752V50.0441H165.192V51.037H165.319C165.446 50.7079 165.666 50.4251 165.954 50.2172C166.243 50.0383 166.572 49.9459 166.913 49.9575C167.213 49.9344 167.513 50.0037 167.778 50.1537L167.496 51.6027H167.369C167.265 51.5623 167.161 51.5277 167.051 51.5046C166.93 51.493 166.803 51.493 166.682 51.5046C166.266 51.4815 165.862 51.6662 165.608 51.9952C165.325 52.4744 165.198 53.0286 165.238 53.5827V56.7116L163.559 56.752Z" fill="#F5F7FA"/>
<path d="M168.899 48.9872C168.523 48.5889 168.523 47.9712 168.899 47.5729C169.101 47.3882 169.366 47.2842 169.638 47.2958C169.828 47.2958 170.013 47.3362 170.18 47.4228C170.33 47.5036 170.457 47.6248 170.544 47.7692C170.723 48.0867 170.723 48.4677 170.544 48.7852C170.457 48.9353 170.33 49.0565 170.18 49.1373C170.013 49.2239 169.828 49.2643 169.638 49.2643C169.366 49.2758 169.101 49.1719 168.899 48.9872ZM168.8 56.7515V50.0436H170.48V56.7284L168.8 56.7515Z" fill="#F5F7FA"/>
<path d="M172.403 56.7526V50.0447H174.013V51.026L174.14 51.0549C174.874 49.9061 176.398 49.5713 177.546 50.3044C177.662 50.3737 177.766 50.4603 177.864 50.5469C178.262 51.0722 178.453 51.7245 178.406 52.3826V56.7295H176.727V52.5904C176.761 52.2498 176.663 51.9035 176.461 51.6264C176.23 51.4128 175.918 51.3031 175.607 51.332C175.18 51.3089 174.77 51.4821 174.487 51.7996C174.181 52.2268 174.037 52.7463 174.083 53.2658V56.7295L172.403 56.7526Z" fill="#F5F7FA"/>
<path d="M180.294 59.1005C179.797 58.835 179.497 58.3097 179.503 57.7497C179.491 57.4264 179.612 57.1147 179.838 56.8838C180.109 56.6356 180.444 56.4797 180.807 56.4335V56.3065C180.611 56.1969 180.444 56.041 180.317 55.8505C180.219 55.6715 180.167 55.4753 180.172 55.2732C180.172 54.7363 180.519 54.3784 181.217 54.1879V54.0609C180.888 53.882 180.605 53.6164 180.409 53.2989C180.219 52.9641 180.12 52.5774 180.132 52.1906C180.132 51.7865 180.23 51.3882 180.438 51.036C180.651 50.6897 180.969 50.4126 181.338 50.2452C181.783 50.0489 182.268 49.9565 182.753 49.9681C183.215 49.945 183.676 50.0431 184.086 50.2567C184.294 49.9508 184.421 49.5871 184.444 49.2176L184.571 49.1426L185.778 49.437C185.749 49.7256 185.656 49.9969 185.495 50.2394C185.31 50.4818 185.073 50.6839 184.802 50.8167V50.9494C185.195 51.3016 185.408 51.8096 185.379 52.3349C185.385 52.7274 185.281 53.1084 185.073 53.4433C184.842 53.7781 184.525 54.0379 184.15 54.1995C183.711 54.3958 183.232 54.4939 182.747 54.4824H182.152C182.02 54.4766 181.893 54.517 181.794 54.6036C181.708 54.6844 181.662 54.7999 181.662 54.9211C181.662 55.0539 181.719 55.1808 181.829 55.2559C181.979 55.3425 182.152 55.3887 182.326 55.3829L183.826 55.4406C185.304 55.481 186.043 56.1218 186.043 57.3456C186.049 57.7555 185.934 58.1538 185.714 58.5002C185.449 58.8754 185.079 59.1525 184.646 59.3026C184.034 59.5219 183.382 59.6258 182.73 59.6028C181.887 59.6547 181.05 59.4815 180.294 59.1005ZM183.988 58.1249C184.225 58.0037 184.369 57.7613 184.375 57.4957C184.392 57.3168 184.317 57.1436 184.179 57.0281C183.982 56.9127 183.763 56.8607 183.538 56.8723L182.222 56.8088H181.985C181.754 56.7914 181.529 56.8549 181.338 56.9877C181.188 57.1089 181.102 57.2994 181.113 57.4957C181.113 57.7728 181.275 58.0268 181.523 58.148C181.904 58.3212 182.32 58.402 182.735 58.3789C183.168 58.4078 183.601 58.3154 183.988 58.1249ZM183.509 53.0219C183.705 52.7967 183.803 52.5023 183.78 52.2079C183.803 51.9135 183.705 51.6191 183.509 51.3997C183.076 51.0245 182.429 51.0245 181.997 51.3997C181.644 51.8846 181.644 52.5369 181.997 53.0219C182.429 53.3971 183.076 53.3971 183.509 53.0219Z" fill="#F5F7FA"/>
<path d="M190.206 48.9872C189.831 48.5889 189.831 47.9712 190.206 47.5729C190.408 47.3882 190.673 47.2842 190.945 47.2958C191.135 47.2958 191.32 47.3362 191.487 47.4228C191.637 47.5036 191.764 47.6248 191.851 47.7692C192.03 48.0867 192.03 48.4677 191.851 48.7852C191.764 48.9353 191.637 49.0565 191.487 49.1373C191.32 49.2239 191.135 49.2643 190.945 49.2643C190.673 49.2758 190.408 49.1719 190.206 48.9872ZM190.108 56.7515V50.0436H191.787V56.7284L190.108 56.7515Z" fill="#F5F7FA"/>
<path d="M193.709 56.7526V50.0447H195.32V51.026L195.447 51.0549C196.18 49.9061 197.704 49.5713 198.853 50.3044C198.968 50.3737 199.072 50.4603 199.17 50.5469C199.569 51.0722 199.759 51.7245 199.713 52.3826V56.7295H198.033V52.5904C198.068 52.2498 197.97 51.9035 197.768 51.6264C197.537 51.4128 197.225 51.3031 196.913 51.332C196.486 51.3089 196.076 51.4821 195.793 51.7996C195.487 52.2268 195.343 52.7463 195.389 53.2658V56.7295L193.709 56.7526Z" fill="#F5F7FA"/>
<path d="M201.538 56.7516V50.0437H203.148V51.025L203.275 51.0539C203.662 50.3034 204.459 49.8474 205.301 49.8993C205.931 49.8416 206.554 50.0725 206.999 50.5286C207.397 51.0539 207.587 51.7062 207.541 52.3643V56.7112H205.867V52.5721C205.896 52.2258 205.804 51.8852 205.596 51.6081C205.365 51.3887 205.053 51.2848 204.741 51.3137C204.314 51.2906 203.904 51.4638 203.622 51.7813C203.316 52.2084 203.171 52.728 203.217 53.2475V56.7112L201.538 56.7516Z" fill="#F5F7FA"/>
<path d="M210.566 56.4746C210.07 56.2033 209.671 55.7934 209.412 55.2912C208.863 54.0962 208.863 52.7223 209.412 51.5274C209.666 51.0251 210.07 50.6095 210.566 50.3382C211.657 49.8013 212.939 49.8013 214.03 50.3382C214.526 50.6095 214.93 51.0251 215.184 51.5274C215.733 52.7223 215.733 54.0962 215.184 55.2912C214.925 55.7934 214.526 56.2033 214.03 56.4746C212.939 57.0172 211.657 57.0172 210.566 56.4746ZM213.845 53.4093C213.891 52.8609 213.747 52.3125 213.447 51.8564C213.164 51.5158 212.731 51.3369 212.292 51.36C211.259 51.36 210.739 52.0469 210.739 53.4093C210.739 54.7716 211.259 55.4528 212.292 55.4528C213.325 55.4528 213.845 54.7716 213.845 53.4093Z" fill="#F5F7FA"/>
<path d="M220.645 56.7509H218.642L216.171 50.043H217.903L219.56 54.8055H219.698L221.367 50.043H223.098L220.645 56.7509Z" fill="#F5F7FA"/>
<path d="M224.594 56.6413C224.288 56.4854 224.034 56.243 223.866 55.9428C223.687 55.6022 223.601 55.227 223.612 54.846C223.601 54.4938 223.687 54.1475 223.866 53.8473C224.063 53.5587 224.34 53.3335 224.657 53.1892C225.102 52.9929 225.569 52.8544 226.048 52.7909C226.36 52.7505 226.666 52.6812 226.961 52.5773C227.122 52.5311 227.267 52.4445 227.382 52.3175C227.567 52.0404 227.515 51.6768 227.266 51.4574C227.041 51.3246 226.782 51.2669 226.522 51.29C226.152 51.29 225.794 51.3708 225.465 51.5382C225.131 51.6941 224.836 51.9192 224.588 52.1905H224.467L223.768 51.1283C224.115 50.7473 224.536 50.4471 225.009 50.2509C225.517 50.0373 226.06 49.9334 226.608 49.9392C227.301 49.8814 227.988 50.0893 228.531 50.5164C228.941 50.9436 229.148 51.5267 229.108 52.1155V55.0018C229.108 55.302 229.235 55.4521 229.501 55.4521C229.599 55.4521 229.703 55.4348 229.795 55.3944L229.882 55.4233L230.003 56.5778C229.882 56.6471 229.755 56.699 229.616 56.7279C229.437 56.7683 229.252 56.7856 229.068 56.7856C228.739 56.8029 228.415 56.7221 228.132 56.5547C227.89 56.3815 227.723 56.1217 227.653 55.8331H227.526C227.191 56.5316 226.464 56.9472 225.696 56.878C225.315 56.8837 224.94 56.8029 224.594 56.6413ZM227.174 55.2327C227.422 54.9268 227.544 54.5342 227.52 54.1417V53.4663L227.405 53.4374C227.29 53.5298 227.157 53.5991 227.012 53.6452C226.782 53.7145 226.545 53.7665 226.302 53.8011C226.02 53.83 225.748 53.9396 225.517 54.1128C225.356 54.2802 225.269 54.5112 225.281 54.7421C225.263 54.9845 225.356 55.227 225.535 55.3944C225.737 55.556 225.991 55.6368 226.245 55.6195C226.597 55.6426 226.937 55.4983 227.174 55.2385V55.2327Z" fill="#F5F7FA"/>
<path d="M234.685 55.1516L235.123 56.3985C234.921 56.5602 234.685 56.6756 234.437 56.7507C234.136 56.8373 233.819 56.8777 233.507 56.8777C232.901 56.9238 232.301 56.716 231.856 56.3004C231.44 55.8213 231.233 55.1978 231.279 54.5686V51.3936H230.274V50.0428H231.29V48.7381L232.97 48.4668V50.0428H234.869V51.3763H232.97V54.43C232.947 54.6898 233.022 54.9438 233.178 55.1516C233.328 55.3017 233.542 55.3883 233.755 55.3768C234.032 55.3825 234.31 55.2959 234.535 55.1343L234.685 55.1516Z" fill="#F5F7FA"/>
<path d="M236.33 48.9873C235.943 48.5947 235.943 47.9655 236.33 47.5729C236.526 47.3824 236.797 47.2843 237.069 47.2958C237.253 47.2958 237.438 47.3362 237.606 47.4228C237.756 47.5037 237.883 47.6249 237.975 47.7692C238.142 48.0867 238.142 48.4677 237.975 48.7852C237.888 48.9353 237.761 49.0565 237.606 49.1373C237.438 49.2239 237.253 49.2701 237.069 49.2643C236.797 49.2759 236.526 49.1778 236.33 48.9873ZM236.232 56.7516V50.0437H237.912V56.7285L236.232 56.7516Z" fill="#F5F7FA"/>
<path d="M241.028 56.4746C240.532 56.2033 240.134 55.7934 239.874 55.2912C239.326 54.0962 239.326 52.7223 239.874 51.5274C240.128 51.0251 240.532 50.6095 241.028 50.3382C242.12 49.8013 243.401 49.8013 244.492 50.3382C244.989 50.6095 245.393 51.0251 245.647 51.5274C246.195 52.7223 246.195 54.0962 245.647 55.2912C245.387 55.7934 244.989 56.2033 244.492 56.4746C243.401 57.0172 242.12 57.0172 241.028 56.4746ZM244.307 53.4093C244.354 52.8609 244.209 52.3125 243.909 51.8564C243.626 51.5158 243.193 51.3369 242.755 51.36C241.715 51.36 241.202 52.0469 241.202 53.4093C241.202 54.7716 241.715 55.4528 242.755 55.4528C243.794 55.4528 244.307 54.7716 244.307 53.4093Z" fill="#F5F7FA"/>
<path d="M247.598 56.7526V50.0447H249.215V51.026L249.342 51.0549C250.075 49.9061 251.599 49.5713 252.747 50.3044C252.863 50.3737 252.967 50.4603 253.065 50.5469C253.457 51.0722 253.654 51.7245 253.608 52.3826V56.7295H251.928V52.5904C251.957 52.2498 251.864 51.9035 251.662 51.6264C251.431 51.4128 251.12 51.3031 250.808 51.332C250.369 51.2973 249.942 51.4705 249.653 51.7996C249.347 52.2268 249.203 52.7463 249.249 53.2658V56.7295L247.598 56.7526Z" fill="#F5F7FA"/>
<path d="M16.3255 17.1389C14.2704 17.1389 12.4405 19.4942 13.8432 21.6474L25.3887 39.2196C26.3239 40.6743 27.9402 41.546 29.672 41.5287C31.1672 41.546 32.5873 40.8937 33.5455 39.7449L33.7765 39.4678L60.7236 7.74667C61.7684 6.49399 61.601 4.62939 60.3483 3.58453C59.2226 2.64358 57.5832 2.67243 56.4921 3.64225L29.6028 27.9166L18.1843 17.8663C17.6763 17.4044 17.0125 17.1447 16.3255 17.1389Z" fill="#F5F7FA"/>
<path d="M9.06925 0.831941C4.24325 0.837714 0.335118 4.74586 0.329346 9.57186V50.5582C0.346664 55.3784 4.24903 59.275 9.06925 59.2808H50.0556C54.8816 59.2808 58.7898 55.3669 58.7955 50.5409V21.2789L53.6867 27.2941V50.5524C53.6867 52.5556 52.0587 54.1835 50.0556 54.1835H9.06925C7.06612 54.1835 5.44398 52.5556 5.4382 50.5524V9.56608C5.4382 7.56294 7.06612 5.9408 9.06925 5.93503H43.5728L49.2301 0.826172H9.06925V0.831941Z" fill="#F5F7FA"/>
</g>
<defs>
<clipPath id="clip0_1653_1218">
<rect width="254" height="59.4591" fill="white" transform="translate(0 0.398438)"/>
</clipPath>
</defs>
</svg>
